<svg xmlns="http://www.w3.org/2000/svg" width="735" height="660" viewBox="0 0 735 660" role="img" aria-label="About me and tech stack">
  
    <defs>
      <filter id="softShadow" x="-20%" y="-20%" width="140%" height="150%">
        <feDropShadow dx="0" dy="10" stdDeviation="16" flood-color="#0f172a" flood-opacity="0.08"/>
      </filter>
      <filter id="tinyShadow" x="-20%" y="-20%" width="140%" height="140%">
        <feDropShadow dx="0" dy="6" stdDeviation="8" flood-color="#0f172a" flood-opacity="0.08"/>
      </filter>
      <linearGradient id="heroBg" x1="0" y1="0" x2="1" y2="1">
        <stop offset="0%" stop-color="#ffffff"/>
        <stop offset="55%" stop-color="#f8fbff"/>
        <stop offset="100%" stop-color="#dbeafe"/>
      </linearGradient>
      <linearGradient id="softBlue" x1="0" y1="0" x2="1" y2="1">
        <stop offset="0%" stop-color="#eff6ff"/>
        <stop offset="100%" stop-color="#bfdbfe"/>
      </linearGradient>
      <linearGradient id="ig" x1="0" y1="1" x2="1" y2="0">
        <stop offset="0%" stop-color="#f59e0b"/>
        <stop offset="35%" stop-color="#ec4899"/>
        <stop offset="70%" stop-color="#8b5cf6"/>
        <stop offset="100%" stop-color="#3b82f6"/>
      </linearGradient>
    </defs>
  <rect x="6" y="8" width="723" height="642" rx="18" fill="#ffffff" stroke="#dbe3ef" opacity="0.98"/>

  <g transform="translate(38 35)">
    <rect x="0" y="0" width="30" height="30" rx="8" fill="#eff6ff" stroke="#dbe3ef"/>
    <path d="M8 19 C12 12 18 10 23 15" fill="none" stroke="#2563eb" stroke-width="2.4" stroke-linecap="round"/>
    <circle cx="11" cy="12" r="2" fill="#60a5fa"/><circle cx="17" cy="10" r="2" fill="#60a5fa"/><circle cx="22" cy="13" r="2" fill="#60a5fa"/>
  </g>
  <text x="78" y="58" font-family="-apple-system, BlinkMacSystemFont, 'Segoe UI', Inter, Arial, sans-serif" font-size="24" font-weight="800" fill="#0f172a">About Me</text>

  <rect x="35" y="82" width="665" height="285" rx="13" fill="#ffffff" stroke="#dbe3ef" filter="url(#tinyShadow)"/>
  <circle cx="642" cy="111" r="5" fill="#ef4444"/>
  <circle cx="661" cy="111" r="5" fill="#22c55e"/>
  <circle cx="680" cy="111" r="5" fill="#facc15"/>
  <text x="58" y="112" font-family="'SFMono-Regular', Consolas, 'Liberation Mono', Menlo, monospace" font-size="15" fill="#94a3b8">1</text><text x="96" y="112" font-family="'SFMono-Regular', Consolas, 'Liberation Mono', Menlo, monospace" font-size="16" font-weight="600" fill="#334155">{</text><text x="58" y="137" font-family="'SFMono-Regular', Consolas, 'Liberation Mono', Menlo, monospace" font-size="15" fill="#94a3b8">2</text><text x="96" y="137" font-family="'SFMono-Regular', Consolas, 'Liberation Mono', Menlo, monospace" font-size="16" font-weight="600" fill="#dc2626">&quot;school&quot;</text><text x="169.6" y="137" font-family="'SFMono-Regular', Consolas, 'Liberation Mono', Menlo, monospace" font-size="16" font-weight="600" fill="#334155">: </text><text x="188.0" y="137" font-family="'SFMono-Regular', Consolas, 'Liberation Mono', Menlo, monospace" font-size="16" font-weight="600" fill="#16a34a">&quot;University of Waterloo&quot;</text><text x="408.79999999999995" y="137" font-family="'SFMono-Regular', Consolas, 'Liberation Mono', Menlo, monospace" font-size="16" font-weight="600" fill="#334155">,</text><text x="58" y="162" font-family="'SFMono-Regular', Consolas, 'Liberation Mono', Menlo, monospace" font-size="15" fill="#94a3b8">3</text><text x="96" y="162" font-family="'SFMono-Regular', Consolas, 'Liberation Mono', Menlo, monospace" font-size="16" font-weight="600" fill="#dc2626">&quot;program&quot;</text><text x="178.8" y="162" font-family="'SFMono-Regular', Consolas, 'Liberation Mono', Menlo, monospace" font-size="16" font-weight="600" fill="#334155">: </text><text x="197.20000000000002" y="162" font-family="'SFMono-Regular', Consolas, 'Liberation Mono', Menlo, monospace" font-size="16" font-weight="600" fill="#16a34a">&quot;Computer Science&quot;</text><text x="362.8" y="162" font-family="'SFMono-Regular', Consolas, 'Liberation Mono', Menlo, monospace" font-size="16" font-weight="600" fill="#334155">,</text><text x="58" y="187" font-family="'SFMono-Regular', Consolas, 'Liberation Mono', Menlo, monospace" font-size="15" fill="#94a3b8">4</text><text x="96" y="187" font-family="'SFMono-Regular', Consolas, 'Liberation Mono', Menlo, monospace" font-size="16" font-weight="600" fill="#dc2626">&quot;year&quot;</text><text x="151.2" y="187" font-family="'SFMono-Regular', Consolas, 'Liberation Mono', Menlo, monospace" font-size="16" font-weight="600" fill="#334155">: </text><text x="169.6" y="187" font-family="'SFMono-Regular', Consolas, 'Liberation Mono', Menlo, monospace" font-size="16" font-weight="600" fill="#16a34a">&quot;1st year&quot;</text><text x="261.6" y="187" font-family="'SFMono-Regular', Consolas, 'Liberation Mono', Menlo, monospace" font-size="16" font-weight="600" fill="#334155">,</text><text x="58" y="212" font-family="'SFMono-Regular', Consolas, 'Liberation Mono', Menlo, monospace" font-size="15" fill="#94a3b8">5</text><text x="96" y="212" font-family="'SFMono-Regular', Consolas, 'Liberation Mono', Menlo, monospace" font-size="16" font-weight="600" fill="#dc2626">&quot;location&quot;</text><text x="188.0" y="212" font-family="'SFMono-Regular', Consolas, 'Liberation Mono', Menlo, monospace" font-size="16" font-weight="600" fill="#334155">: </text><text x="206.4" y="212" font-family="'SFMono-Regular', Consolas, 'Liberation Mono', Menlo, monospace" font-size="16" font-weight="600" fill="#16a34a">&quot;Toronto, Canada&quot;</text><text x="362.79999999999995" y="212" font-family="'SFMono-Regular', Consolas, 'Liberation Mono', Menlo, monospace" font-size="16" font-weight="600" fill="#334155">,</text><text x="58" y="237" font-family="'SFMono-Regular', Consolas, 'Liberation Mono', Menlo, monospace" font-size="15" fill="#94a3b8">6</text><text x="96" y="237" font-family="'SFMono-Regular', Consolas, 'Liberation Mono', Menlo, monospace" font-size="16" font-weight="600" fill="#dc2626">&quot;interests&quot;</text><text x="197.2" y="237" font-family="'SFMono-Regular', Consolas, 'Liberation Mono', Menlo, monospace" font-size="16" font-weight="600" fill="#334155">: [</text><text x="58" y="262" font-family="'SFMono-Regular', Consolas, 'Liberation Mono', Menlo, monospace" font-size="15" fill="#94a3b8">7</text><text x="96" y="262" font-family="'SFMono-Regular', Consolas, 'Liberation Mono', Menlo, monospace" font-size="16" font-weight="600" fill="#16a34a">  &quot;Software Engineering&quot;, &quot;Full-Stack Development&quot;,</text><text x="58" y="287" font-family="'SFMono-Regular', Consolas, 'Liberation Mono', Menlo, monospace" font-size="15" fill="#94a3b8">8</text><text x="96" y="287" font-family="'SFMono-Regular', Consolas, 'Liberation Mono', Menlo, monospace" font-size="16" font-weight="600" fill="#16a34a">  &quot;Machine Learning&quot;, &quot;Data Science&quot;, &quot;Systems Programming&quot;</text><text x="58" y="312" font-family="'SFMono-Regular', Consolas, 'Liberation Mono', Menlo, monospace" font-size="15" fill="#94a3b8">9</text><text x="96" y="312" font-family="'SFMono-Regular', Consolas, 'Liberation Mono', Menlo, monospace" font-size="16" font-weight="600" fill="#334155">]</text><text x="58" y="337" font-family="'SFMono-Regular', Consolas, 'Liberation Mono', Menlo, monospace" font-size="15" fill="#94a3b8">10</text><text x="96" y="337" font-family="'SFMono-Regular', Consolas, 'Liberation Mono', Menlo, monospace" font-size="16" font-weight="600" fill="#334155">}</text>

  <g transform="translate(38 385)">
    <rect x="0" y="0" width="30" height="30" rx="8" fill="#eff6ff" stroke="#dbe3ef"/>
    <rect x="7" y="8" width="16" height="11" rx="2" fill="#2563eb" opacity=".88"/>
    <path d="M5 22 H25" stroke="#0f172a" stroke-width="2" stroke-linecap="round"/>
  </g>
  <text x="78" y="408" font-family="-apple-system, BlinkMacSystemFont, 'Segoe UI', Inter, Arial, sans-serif" font-size="24" font-weight="800" fill="#0f172a">Tech Stack</text>
  
    <g transform="translate(38 420)">
      <rect x="0" y="0" width="86" height="76" rx="12" fill="#ffffff" stroke="#dbe3ef" filter="url(#tinyShadow)"/>
      <g transform="translate(3 0)"><path d="M20 21 q0-12 12-12 h14 q10 0 10 10 v8 H34 q-8 0-8 8 v6 H20z" fill="#3776AB"/><path d="M58 47 q0 12-12 12 H32 q-10 0-10-10 v-8 h22 q8 0 8-8 v-6 h6z" fill="#FFD43B"/><circle cx="32" cy="18" r="2" fill="#fff"/><circle cx="46" cy="54" r="2" fill="#1f2937"/></g>
      <text x="43" y="100" text-anchor="middle" font-family="-apple-system, BlinkMacSystemFont, 'Segoe UI', Inter, Arial, sans-serif" font-size="14" font-weight="600" fill="#1e293b">Python</text>
    </g>
    <g transform="translate(144 420)">
      <rect x="0" y="0" width="86" height="76" rx="12" fill="#ffffff" stroke="#dbe3ef" filter="url(#tinyShadow)"/>
      <g transform="translate(3 0)"><rect x="18" y="13" width="44" height="44" rx="5" fill="#3178C6"/><text x="40" y="43" text-anchor="middle" font-family="Arial" font-size="19" font-weight="800" fill="#fff">TS</text></g>
      <text x="43" y="100" text-anchor="middle" font-family="-apple-system, BlinkMacSystemFont, 'Segoe UI', Inter, Arial, sans-serif" font-size="14" font-weight="600" fill="#1e293b">TypeScript</text>
    </g>
    <g transform="translate(250 420)">
      <rect x="0" y="0" width="86" height="76" rx="12" fill="#ffffff" stroke="#dbe3ef" filter="url(#tinyShadow)"/>
      <g transform="translate(3 0)"><path d="M39 15 c-9 8 9 11-2 21" fill="none" stroke="#f97316" stroke-width="3" stroke-linecap="round"/><path d="M47 18 c-7 7 8 8-1 17" fill="none" stroke="#ef4444" stroke-width="2.5" stroke-linecap="round"/><path d="M26 42 c8 5 28 5 36 0" fill="none" stroke="#60a5fa" stroke-width="4" stroke-linecap="round"/><path d="M28 50 h30 c-3 6-8 9-15 9h-1c-7 0-12-3-14-9z" fill="#60a5fa"/><path d="M26 62 c9 4 30 4 39-1" fill="none" stroke="#f97316" stroke-width="3" stroke-linecap="round"/></g>
      <text x="43" y="100" text-anchor="middle" font-family="-apple-system, BlinkMacSystemFont, 'Segoe UI', Inter, Arial, sans-serif" font-size="14" font-weight="600" fill="#1e293b">Java</text>
    </g>
    <g transform="translate(356 420)">
      <rect x="0" y="0" width="86" height="76" rx="12" fill="#ffffff" stroke="#dbe3ef" filter="url(#tinyShadow)"/>
      <g transform="translate(3 0)"><path d="M40 10 L66 25 V55 L40 70 L14 55 V25Z" fill="#659AD2"/><text x="40" y="49" text-anchor="middle" font-family="Arial" font-size="34" font-weight="900" fill="#fff">C</text></g>
      <text x="43" y="100" text-anchor="middle" font-family="-apple-system, BlinkMacSystemFont, 'Segoe UI', Inter, Arial, sans-serif" font-size="14" font-weight="600" fill="#1e293b">C</text>
    </g>
    <g transform="translate(462 420)">
      <rect x="0" y="0" width="86" height="76" rx="12" fill="#ffffff" stroke="#dbe3ef" filter="url(#tinyShadow)"/>
      <g transform="translate(3 0)"><circle cx="40" cy="40" r="5" fill="#61DAFB"/><ellipse cx="40" cy="40" rx="30" ry="11" fill="none" stroke="#61DAFB" stroke-width="3"/><ellipse cx="40" cy="40" rx="30" ry="11" fill="none" stroke="#61DAFB" stroke-width="3" transform="rotate(60 40 40)"/><ellipse cx="40" cy="40" rx="30" ry="11" fill="none" stroke="#61DAFB" stroke-width="3" transform="rotate(120 40 40)"/></g>
      <text x="43" y="100" text-anchor="middle" font-family="-apple-system, BlinkMacSystemFont, 'Segoe UI', Inter, Arial, sans-serif" font-size="14" font-weight="600" fill="#1e293b">React</text>
    </g>
    <g transform="translate(568 420)">
      <rect x="0" y="0" width="86" height="76" rx="12" fill="#ffffff" stroke="#dbe3ef" filter="url(#tinyShadow)"/>
      <g transform="translate(3 0)"><circle cx="40" cy="40" r="30" fill="#0b0f19"/><text x="40" y="50" text-anchor="middle" font-family="Arial" font-size="30" font-weight="700" fill="#fff">N</text></g>
      <text x="43" y="100" text-anchor="middle" font-family="-apple-system, BlinkMacSystemFont, 'Segoe UI', Inter, Arial, sans-serif" font-size="14" font-weight="600" fill="#1e293b">Next.js</text>
    </g>
    <g transform="translate(38 532)">
      <rect x="0" y="0" width="86" height="76" rx="12" fill="#ffffff" stroke="#dbe3ef" filter="url(#tinyShadow)"/>
      <g transform="translate(3 0)"><path d="M16 42 c8-17 20-20 36-9 7 5 12 5 17 0-8 17-20 20-36 9-7-5-12-5-17 0z" fill="#38BDF8"/><path d="M16 55 c8-17 20-20 36-9 7 5 12 5 17 0-8 17-20 20-36 9-7-5-12-5-17 0z" fill="#0EA5E9" opacity="0.9"/></g>
      <text x="43" y="100" text-anchor="middle" font-family="-apple-system, BlinkMacSystemFont, 'Segoe UI', Inter, Arial, sans-serif" font-size="14" font-weight="600" fill="#1e293b">Tailwind CSS</text>
    </g>
    <g transform="translate(144 532)">
      <rect x="0" y="0" width="86" height="76" rx="12" fill="#ffffff" stroke="#dbe3ef" filter="url(#tinyShadow)"/>
      <g transform="translate(3 0)"><path d="M40 10 L66 25 V55 L40 70 L14 55 V25Z" fill="#7cc86e"/><text x="40" y="49" text-anchor="middle" font-family="Arial" font-size="19" font-weight="900" fill="#fff">JS</text></g>
      <text x="43" y="100" text-anchor="middle" font-family="-apple-system, BlinkMacSystemFont, 'Segoe UI', Inter, Arial, sans-serif" font-size="14" font-weight="600" fill="#1e293b">Node.js</text>
    </g>
    <g transform="translate(250 532)">
      <rect x="0" y="0" width="86" height="76" rx="12" fill="#ffffff" stroke="#dbe3ef" filter="url(#tinyShadow)"/>
      <g transform="translate(3 0)"><circle cx="40" cy="40" r="30" fill="#059669"/><path d="M43 13 L25 45 H39 L35 67 L55 34 H42Z" fill="#ffffff"/></g>
      <text x="43" y="100" text-anchor="middle" font-family="-apple-system, BlinkMacSystemFont, 'Segoe UI', Inter, Arial, sans-serif" font-size="14" font-weight="600" fill="#1e293b">FastAPI</text>
    </g>
    <g transform="translate(356 532)">
      <rect x="0" y="0" width="86" height="76" rx="12" fill="#ffffff" stroke="#dbe3ef" filter="url(#tinyShadow)"/>
      <g transform="translate(3 0)"><rect x="20" y="28" width="9" height="8" fill="#2496ED"/><rect x="31" y="28" width="9" height="8" fill="#2496ED"/><rect x="42" y="28" width="9" height="8" fill="#2496ED"/><rect x="31" y="18" width="9" height="8" fill="#2496ED"/><path d="M14 40 h48 c-2 13-12 21-27 21-12 0-19-6-21-21z" fill="#2496ED"/><path d="M61 37 c4-5 8-6 12-5-1 5-4 8-10 9z" fill="#1d4ed8"/></g>
      <text x="43" y="100" text-anchor="middle" font-family="-apple-system, BlinkMacSystemFont, 'Segoe UI', Inter, Arial, sans-serif" font-size="14" font-weight="600" fill="#1e293b">Docker</text>
    </g>
    <g transform="translate(462 532)">
      <rect x="0" y="0" width="86" height="76" rx="12" fill="#ffffff" stroke="#dbe3ef" filter="url(#tinyShadow)"/>
      <g transform="translate(3 0)"><path d="M42 12 L42 34 c9 3 15 11 15 21 0 13-10 23-23 23S11 68 11 55c0-8 4-15 11-19" fill="none" stroke="#EE4C2C" stroke-width="7" stroke-linecap="round"/><circle cx="51" cy="20" r="4" fill="#EE4C2C"/></g>
      <text x="43" y="100" text-anchor="middle" font-family="-apple-system, BlinkMacSystemFont, 'Segoe UI', Inter, Arial, sans-serif" font-size="14" font-weight="600" fill="#1e293b">PyTorch</text>
    </g>
    <g transform="translate(568 532)">
      <rect x="0" y="0" width="86" height="76" rx="12" fill="#ffffff" stroke="#dbe3ef" filter="url(#tinyShadow)"/>
      <g transform="translate(3 0)"><path d="M40 17 L70 65 H10Z" fill="#0b0f19"/></g>
      <text x="43" y="100" text-anchor="middle" font-family="-apple-system, BlinkMacSystemFont, 'Segoe UI', Inter, Arial, sans-serif" font-size="14" font-weight="600" fill="#1e293b">Vercel</text>
    </g>
</svg>