<svg xmlns="http://www.w3.org/2000/svg" width="310" height="96" viewBox="0 0 310 96" role="img" aria-label="EMAIL jchahin11@gmail.com">
      
    <defs>
      <filter id="softShadow" x="-20%" y="-20%" width="140%" height="150%">
        <feDropShadow dx="0" dy="10" stdDeviation="16" flood-color="#0f172a" flood-opacity="0.08"/>
      </filter>
      <filter id="tinyShadow" x="-20%" y="-20%" width="140%" height="140%">
        <feDropShadow dx="0" dy="6" stdDeviation="8" flood-color="#0f172a" flood-opacity="0.08"/>
      </filter>
      <linearGradient id="heroBg" x1="0" y1="0" x2="1" y2="1">
        <stop offset="0%" stop-color="#ffffff"/>
        <stop offset="55%" stop-color="#f8fbff"/>
        <stop offset="100%" stop-color="#dbeafe"/>
      </linearGradient>
      <linearGradient id="softBlue" x1="0" y1="0" x2="1" y2="1">
        <stop offset="0%" stop-color="#eff6ff"/>
        <stop offset="100%" stop-color="#bfdbfe"/>
      </linearGradient>
      <linearGradient id="ig" x1="0" y1="1" x2="1" y2="0">
        <stop offset="0%" stop-color="#f59e0b"/>
        <stop offset="35%" stop-color="#ec4899"/>
        <stop offset="70%" stop-color="#8b5cf6"/>
        <stop offset="100%" stop-color="#3b82f6"/>
      </linearGradient>
    </defs>
      <rect x="7" y="8" width="296" height="80" rx="14" fill="#ffffff" stroke="#dbe3ef" filter="url(#tinyShadow)"/>
      <g transform="translate(35 28)">
          <path d="M0 7 A6 6 0 0 1 6 1 H42 A6 6 0 0 1 48 7 V35 A6 6 0 0 1 42 41 H6 A6 6 0 0 1 0 35Z" fill="#fff" stroke="#e2e8f0"/>
          <path d="M7 11 L24 24 L41 11 V34 H7Z" fill="#ffffff"/>
          <path d="M7 11 L24 24 L41 11" fill="none" stroke="#ea4335" stroke-width="7" stroke-linecap="round" stroke-linejoin="round"/>
          <path d="M7 13 V34" stroke="#34a853" stroke-width="7" stroke-linecap="round"/>
          <path d="M41 13 V34" stroke="#4285f4" stroke-width="7" stroke-linecap="round"/>
          <path d="M7 11 L24 24 L41 11" fill="none" stroke="#fbbc05" stroke-width="3" stroke-linecap="round" stroke-linejoin="round" opacity=".8"/>
        </g>
      <text x="105" y="39" font-family="-apple-system, BlinkMacSystemFont, 'Segoe UI', Inter, Arial, sans-serif" font-size="16" font-weight="800" fill="#0f172a">EMAIL</text>
      <text x="105" y="63" font-family="-apple-system, BlinkMacSystemFont, 'Segoe UI', Inter, Arial, sans-serif" font-size="17" font-weight="500" fill="#334155">jchahin11@gmail.com</text>
    </svg>