<svg xmlns="http://www.w3.org/2000/svg" width="310" height="96" viewBox="0 0 310 96" role="img" aria-label="LINKEDIN Jad Chahin">
      
    <defs>
      <filter id="softShadow" x="-20%" y="-20%" width="140%" height="150%">
        <feDropShadow dx="0" dy="10" stdDeviation="16" flood-color="#0f172a" flood-opacity="0.08"/>
      </filter>
      <filter id="tinyShadow" x="-20%" y="-20%" width="140%" height="140%">
        <feDropShadow dx="0" dy="6" stdDeviation="8" flood-color="#0f172a" flood-opacity="0.08"/>
      </filter>
      <linearGradient id="heroBg" x1="0" y1="0" x2="1" y2="1">
        <stop offset="0%" stop-color="#ffffff"/>
        <stop offset="55%" stop-color="#f8fbff"/>
        <stop offset="100%" stop-color="#dbeafe"/>
      </linearGradient>
      <linearGradient id="softBlue" x1="0" y1="0" x2="1" y2="1">
        <stop offset="0%" stop-color="#eff6ff"/>
        <stop offset="100%" stop-color="#bfdbfe"/>
      </linearGradient>
      <linearGradient id="ig" x1="0" y1="1" x2="1" y2="0">
        <stop offset="0%" stop-color="#f59e0b"/>
        <stop offset="35%" stop-color="#ec4899"/>
        <stop offset="70%" stop-color="#8b5cf6"/>
        <stop offset="100%" stop-color="#3b82f6"/>
      </linearGradient>
    </defs>
      <rect x="7" y="8" width="296" height="80" rx="14" fill="#ffffff" stroke="#dbe3ef" filter="url(#tinyShadow)"/>
      <g transform="translate(35 27)">
          <rect width="48" height="48" rx="7" fill="#0a66c2"/>
          <circle cx="14" cy="15" r="5" fill="#fff"/>
          <rect x="10" y="22" width="8" height="18" rx="1" fill="#fff"/>
          <path d="M25 22 h7 v3 c2-2 5-4 9-4 6 0 10 4 10 12 v7 h-8 v-7 c0-4-2-6-5-6-3 0-5 2-5 6 v7 h-8z" fill="#fff" transform="scale(.86) translate(0 3)"/>
        </g>
      <text x="105" y="39" font-family="-apple-system, BlinkMacSystemFont, 'Segoe UI', Inter, Arial, sans-serif" font-size="16" font-weight="800" fill="#0f172a">LINKEDIN</text>
      <text x="105" y="63" font-family="-apple-system, BlinkMacSystemFont, 'Segoe UI', Inter, Arial, sans-serif" font-size="17" font-weight="500" fill="#334155">Jad Chahin</text>
    </svg>