<svg xmlns="http://www.w3.org/2000/svg" width="1536" height="90" viewBox="0 0 1536 90" role="img" aria-label="Check out my projects below">
  
    <defs>
      <filter id="softShadow" x="-20%" y="-20%" width="140%" height="150%">
        <feDropShadow dx="0" dy="10" stdDeviation="16" flood-color="#0f172a" flood-opacity="0.08"/>
      </filter>
      <filter id="tinyShadow" x="-20%" y="-20%" width="140%" height="140%">
        <feDropShadow dx="0" dy="6" stdDeviation="8" flood-color="#0f172a" flood-opacity="0.08"/>
      </filter>
      <linearGradient id="heroBg" x1="0" y1="0" x2="1" y2="1">
        <stop offset="0%" stop-color="#ffffff"/>
        <stop offset="55%" stop-color="#f8fbff"/>
        <stop offset="100%" stop-color="#dbeafe"/>
      </linearGradient>
      <linearGradient id="softBlue" x1="0" y1="0" x2="1" y2="1">
        <stop offset="0%" stop-color="#eff6ff"/>
        <stop offset="100%" stop-color="#bfdbfe"/>
      </linearGradient>
      <linearGradient id="ig" x1="0" y1="1" x2="1" y2="0">
        <stop offset="0%" stop-color="#f59e0b"/>
        <stop offset="35%" stop-color="#ec4899"/>
        <stop offset="70%" stop-color="#8b5cf6"/>
        <stop offset="100%" stop-color="#3b82f6"/>
      </linearGradient>
    </defs>
  <rect x="8" y="7" width="1520" height="76" rx="18" fill="#eff6ff" stroke="#dbe3ef" filter="url(#tinyShadow)"/>
  <g transform="translate(520 28) rotate(-20)">
    <path d="M12 24 C18 8 30 2 42 4 C44 16 38 28 22 34 Z" fill="#2563eb"/>
    <circle cx="32" cy="14" r="5" fill="#bfdbfe"/>
    <path d="M15 27 L5 37 L19 34 Z" fill="#f97316"/>
    <path d="M20 34 L15 49 L27 38 Z" fill="#f59e0b"/>
  </g>
  <text x="768" y="54" text-anchor="middle" font-family="-apple-system, BlinkMacSystemFont, 'Segoe UI', Inter, Arial, sans-serif" font-size="27" font-weight="800" fill="#0f172a">Check out my projects below!</text>
  <path d="M1002 20 C1035 33 1038 62 1005 73" fill="none" stroke="#2563eb" stroke-width="4" stroke-linecap="round"/>
  <path d="M1005 73 L988 58 M1005 73 L1015 53" fill="none" stroke="#2563eb" stroke-width="4" stroke-linecap="round"/>
</svg>