<svg xmlns="http://www.w3.org/2000/svg" width="735" height="660" viewBox="0 0 735 660" role="img" aria-label="GitHub overview with contribution graph and top languages">
  
    <defs>
      <filter id="softShadow" x="-20%" y="-20%" width="140%" height="150%">
        <feDropShadow dx="0" dy="10" stdDeviation="16" flood-color="#0f172a" flood-opacity="0.08"/>
      </filter>
      <filter id="tinyShadow" x="-20%" y="-20%" width="140%" height="140%">
        <feDropShadow dx="0" dy="6" stdDeviation="8" flood-color="#0f172a" flood-opacity="0.08"/>
      </filter>
      <linearGradient id="heroBg" x1="0" y1="0" x2="1" y2="1">
        <stop offset="0%" stop-color="#ffffff"/>
        <stop offset="55%" stop-color="#f8fbff"/>
        <stop offset="100%" stop-color="#dbeafe"/>
      </linearGradient>
      <linearGradient id="softBlue" x1="0" y1="0" x2="1" y2="1">
        <stop offset="0%" stop-color="#eff6ff"/>
        <stop offset="100%" stop-color="#bfdbfe"/>
      </linearGradient>
      <linearGradient id="ig" x1="0" y1="1" x2="1" y2="0">
        <stop offset="0%" stop-color="#f59e0b"/>
        <stop offset="35%" stop-color="#ec4899"/>
        <stop offset="70%" stop-color="#8b5cf6"/>
        <stop offset="100%" stop-color="#3b82f6"/>
      </linearGradient>
    </defs>
  <rect x="6" y="8" width="723" height="642" rx="18" fill="#ffffff" stroke="#dbe3ef" opacity="0.98"/>
  <g transform="translate(38 35)">
    <rect x="0" y="0" width="30" height="30" rx="8" fill="#eff6ff" stroke="#dbe3ef"/>
    <rect x="8" y="16" width="4" height="8" rx="2" fill="#60a5fa"/>
    <rect x="14" y="10" width="4" height="14" rx="2" fill="#34d399"/>
    <rect x="20" y="6" width="4" height="18" rx="2" fill="#2563eb"/>
  </g>
  <text x="78" y="58" font-family="-apple-system, BlinkMacSystemFont, 'Segoe UI', Inter, Arial, sans-serif" font-size="24" font-weight="800" fill="#0f172a">GitHub Overview</text>

  <rect x="35" y="80" width="665" height="110" rx="14" fill="#ffffff" stroke="#dbe3ef" filter="url(#tinyShadow)"/>
  <text x="90" y="116" text-anchor="middle" font-family="-apple-system, BlinkMacSystemFont, 'Segoe UI', Inter, Arial, sans-serif" font-size="14" font-weight="700" fill="#475569">Repos</text><text x="90" y="152" text-anchor="middle" font-family="-apple-system, BlinkMacSystemFont, 'Segoe UI', Inter, Arial, sans-serif" font-size="30" font-weight="800" fill="#2563eb">27</text><line x1="210" y1="95" x2="210" y2="160" stroke="#dbe3ef"/><text x="250" y="116" text-anchor="middle" font-family="-apple-system, BlinkMacSystemFont, 'Segoe UI', Inter, Arial, sans-serif" font-size="14" font-weight="700" fill="#475569">Commits</text><text x="250" y="152" text-anchor="middle" font-family="-apple-system, BlinkMacSystemFont, 'Segoe UI', Inter, Arial, sans-serif" font-size="30" font-weight="800" fill="#2563eb">342</text><line x1="370" y1="95" x2="370" y2="160" stroke="#dbe3ef"/><text x="410" y="116" text-anchor="middle" font-family="-apple-system, BlinkMacSystemFont, 'Segoe UI', Inter, Arial, sans-serif" font-size="14" font-weight="700" fill="#475569">Stars</text><text x="410" y="152" text-anchor="middle" font-family="-apple-system, BlinkMacSystemFont, 'Segoe UI', Inter, Arial, sans-serif" font-size="30" font-weight="800" fill="#2563eb">12</text><line x1="530" y1="95" x2="530" y2="160" stroke="#dbe3ef"/><text x="570" y="116" text-anchor="middle" font-family="-apple-system, BlinkMacSystemFont, 'Segoe UI', Inter, Arial, sans-serif" font-size="14" font-weight="700" fill="#475569">Followers</text><text x="570" y="152" text-anchor="middle" font-family="-apple-system, BlinkMacSystemFont, 'Segoe UI', Inter, Arial, sans-serif" font-size="30" font-weight="800" fill="#2563eb">18</text>

  <text x="54" y="225" font-family="-apple-system, BlinkMacSystemFont, 'Segoe UI', Inter, Arial, sans-serif" font-size="17" font-weight="800" fill="#0f172a">Contribution Graph</text>
  <text x="72" y="255" font-family="-apple-system, BlinkMacSystemFont, 'Segoe UI', Inter, Arial, sans-serif" font-size="13" font-weight="600" fill="#64748b">Dec</text><text x="164" y="255" font-family="-apple-system, BlinkMacSystemFont, 'Segoe UI', Inter, Arial, sans-serif" font-size="13" font-weight="600" fill="#64748b">Jan</text><text x="256" y="255" font-family="-apple-system, BlinkMacSystemFont, 'Segoe UI', Inter, Arial, sans-serif" font-size="13" font-weight="600" fill="#64748b">Feb</text><text x="348" y="255" font-family="-apple-system, BlinkMacSystemFont, 'Segoe UI', Inter, Arial, sans-serif" font-size="13" font-weight="600" fill="#64748b">Mar</text><text x="444" y="255" font-family="-apple-system, BlinkMacSystemFont, 'Segoe UI', Inter, Arial, sans-serif" font-size="13" font-weight="600" fill="#64748b">Apr</text><text x="540" y="255" font-family="-apple-system, BlinkMacSystemFont, 'Segoe UI', Inter, Arial, sans-serif" font-size="13" font-weight="600" fill="#64748b">May</text>
  <text x="54" y="297" text-anchor="end" font-family="-apple-system, BlinkMacSystemFont, 'Segoe UI', Inter, Arial, sans-serif" font-size="13" font-weight="600" fill="#64748b">Mon</text><text x="54" y="332" text-anchor="end" font-family="-apple-system, BlinkMacSystemFont, 'Segoe UI', Inter, Arial, sans-serif" font-size="13" font-weight="600" fill="#64748b">Wed</text><text x="54" y="367" text-anchor="end" font-family="-apple-system, BlinkMacSystemFont, 'Segoe UI', Inter, Arial, sans-serif" font-size="13" font-weight="600" fill="#64748b">Fri</text>
  <rect x="74" y="269" width="14" height="14" rx="3" fill="#eff6ff"/><rect x="74" y="288" width="14" height="14" rx="3" fill="#eff6ff"/><rect x="74" y="307" width="14" height="14" rx="3" fill="#eff6ff"/><rect x="74" y="326" width="14" height="14" rx="3" fill="#eff6ff"/><rect x="74" y="345" width="14" height="14" rx="3" fill="#eff6ff"/><rect x="74" y="364" width="14" height="14" rx="3" fill="#eff6ff"/><rect x="74" y="383" width="14" height="14" rx="3" fill="#eff6ff"/><rect x="93" y="269" width="14" height="14" rx="3" fill="#eff6ff"/><rect x="93" y="288" width="14" height="14" rx="3" fill="#eff6ff"/><rect x="93" y="307" width="14" height="14" rx="3" fill="#eff6ff"/><rect x="93" y="326" width="14" height="14" rx="3" fill="#eff6ff"/><rect x="93" y="345" width="14" height="14" rx="3" fill="#eff6ff"/><rect x="93" y="364" width="14" height="14" rx="3" fill="#eff6ff"/><rect x="93" y="383" width="14" height="14" rx="3" fill="#eff6ff"/><rect x="112" y="269" width="14" height="14" rx="3" fill="#eff6ff"/><rect x="112" y="288" width="14" height="14" rx="3" fill="#eff6ff"/><rect x="112" y="307" width="14" height="14" rx="3" fill="#eff6ff"/><rect x="112" y="326" width="14" height="14" rx="3" fill="#eff6ff"/><rect x="112" y="345" width="14" height="14" rx="3" fill="#eff6ff"/><rect x="112" y="364" width="14" height="14" rx="3" fill="#eff6ff"/><rect x="112" y="383" width="14" height="14" rx="3" fill="#eff6ff"/><rect x="131" y="269" width="14" height="14" rx="3" fill="#eff6ff"/><rect x="131" y="288" width="14" height="14" rx="3" fill="#eff6ff"/><rect x="131" y="307" width="14" height="14" rx="3" fill="#eff6ff"/><rect x="131" y="326" width="14" height="14" rx="3" fill="#eff6ff"/><rect x="131" y="345" width="14" height="14" rx="3" fill="#eff6ff"/><rect x="131" y="364" width="14" height="14" rx="3" fill="#eff6ff"/><rect x="131" y="383" width="14" height="14" rx="3" fill="#eff6ff"/><rect x="150" y="269" width="14" height="14" rx="3" fill="#eff6ff"/><rect x="150" y="288" width="14" height="14" rx="3" fill="#eff6ff"/><rect x="150" y="307" width="14" height="14" rx="3" fill="#eff6ff"/><rect x="150" y="326" width="14" height="14" rx="3" fill="#eff6ff"/><rect x="150" y="345" width="14" height="14" rx="3" fill="#eff6ff"/><rect x="150" y="364" width="14" height="14" rx="3" fill="#eff6ff"/><rect x="150" y="383" width="14" height="14" rx="3" fill="#eff6ff"/><rect x="169" y="269" width="14" height="14" rx="3" fill="#eff6ff"/><rect x="169" y="288" width="14" height="14" rx="3" fill="#eff6ff"/><rect x="169" y="307" width="14" height="14" rx="3" fill="#eff6ff"/><rect x="169" y="326" width="14" height="14" rx="3" fill="#eff6ff"/><rect x="169" y="345" width="14" height="14" rx="3" fill="#eff6ff"/><rect x="169" y="364" width="14" height="14" rx="3" fill="#eff6ff"/><rect x="169" y="383" width="14" height="14" rx="3" fill="#eff6ff"/><rect x="188" y="269" width="14" height="14" rx="3" fill="#eff6ff"/><rect x="188" y="288" width="14" height="14" rx="3" fill="#eff6ff"/><rect x="188" y="307" width="14" height="14" rx="3" fill="#eff6ff"/><rect x="188" y="326" width="14" height="14" rx="3" fill="#eff6ff"/><rect x="188" y="345" width="14" height="14" rx="3" fill="#eff6ff"/><rect x="188" y="364" width="14" height="14" rx="3" fill="#eff6ff"/><rect x="188" y="383" width="14" height="14" rx="3" fill="#eff6ff"/><rect x="207" y="269" width="14" height="14" rx="3" fill="#dbeafe"/><rect x="207" y="288" width="14" height="14" rx="3" fill="#eff6ff"/><rect x="207" y="307" width="14" height="14" rx="3" fill="#eff6ff"/><rect x="207" y="326" width="14" height="14" rx="3" fill="#eff6ff"/><rect x="207" y="345" width="14" height="14" rx="3" fill="#eff6ff"/><rect x="207" y="364" width="14" height="14" rx="3" fill="#eff6ff"/><rect x="207" y="383" width="14" height="14" rx="3" fill="#eff6ff"/><rect x="226" y="269" width="14" height="14" rx="3" fill="#eff6ff"/><rect x="226" y="288" width="14" height="14" rx="3" fill="#dbeafe"/><rect x="226" y="307" width="14" height="14" rx="3" fill="#eff6ff"/><rect x="226" y="326" width="14" height="14" rx="3" fill="#eff6ff"/><rect x="226" y="345" width="14" height="14" rx="3" fill="#eff6ff"/><rect x="226" y="364" width="14" height="14" rx="3" fill="#eff6ff"/><rect x="226" y="383" width="14" height="14" rx="3" fill="#eff6ff"/><rect x="245" y="269" width="14" height="14" rx="3" fill="#eff6ff"/><rect x="245" y="288" width="14" height="14" rx="3" fill="#dbeafe"/><rect x="245" y="307" width="14" height="14" rx="3" fill="#eff6ff"/><rect x="245" y="326" width="14" height="14" rx="3" fill="#dbeafe"/><rect x="245" y="345" width="14" height="14" rx="3" fill="#eff6ff"/><rect x="245" y="364" width="14" height="14" rx="3" fill="#eff6ff"/><rect x="245" y="383" width="14" height="14" rx="3" fill="#eff6ff"/><rect x="264" y="269" width="14" height="14" rx="3" fill="#eff6ff"/><rect x="264" y="288" width="14" height="14" rx="3" fill="#eff6ff"/><rect x="264" y="307" width="14" height="14" rx="3" fill="#eff6ff"/><rect x="264" y="326" width="14" height="14" rx="3" fill="#eff6ff"/><rect x="264" y="345" width="14" height="14" rx="3" fill="#eff6ff"/><rect x="264" y="364" width="14" height="14" rx="3" fill="#dbeafe"/><rect x="264" y="383" width="14" height="14" rx="3" fill="#eff6ff"/><rect x="283" y="269" width="14" height="14" rx="3" fill="#eff6ff"/><rect x="283" y="288" width="14" height="14" rx="3" fill="#eff6ff"/><rect x="283" y="307" width="14" height="14" rx="3" fill="#eff6ff"/><rect x="283" y="326" width="14" height="14" rx="3" fill="#eff6ff"/><rect x="283" y="345" width="14" height="14" rx="3" fill="#eff6ff"/><rect x="283" y="364" width="14" height="14" rx="3" fill="#eff6ff"/><rect x="283" y="383" width="14" height="14" rx="3" fill="#eff6ff"/><rect x="302" y="269" width="14" height="14" rx="3" fill="#eff6ff"/><rect x="302" y="288" width="14" height="14" rx="3" fill="#bfdbfe"/><rect x="302" y="307" width="14" height="14" rx="3" fill="#dbeafe"/><rect x="302" y="326" width="14" height="14" rx="3" fill="#dbeafe"/><rect x="302" y="345" width="14" height="14" rx="3" fill="#eff6ff"/><rect x="302" y="364" width="14" height="14" rx="3" fill="#eff6ff"/><rect x="302" y="383" width="14" height="14" rx="3" fill="#dbeafe"/><rect x="321" y="269" width="14" height="14" rx="3" fill="#dbeafe"/><rect x="321" y="288" width="14" height="14" rx="3" fill="#eff6ff"/><rect x="321" y="307" width="14" height="14" rx="3" fill="#dbeafe"/><rect x="321" y="326" width="14" height="14" rx="3" fill="#eff6ff"/><rect x="321" y="345" width="14" height="14" rx="3" fill="#eff6ff"/><rect x="321" y="364" width="14" height="14" rx="3" fill="#dbeafe"/><rect x="321" y="383" width="14" height="14" rx="3" fill="#dbeafe"/><rect x="340" y="269" width="14" height="14" rx="3" fill="#eff6ff"/><rect x="340" y="288" width="14" height="14" rx="3" fill="#bfdbfe"/><rect x="340" y="307" width="14" height="14" rx="3" fill="#bfdbfe"/><rect x="340" y="326" width="14" height="14" rx="3" fill="#dbeafe"/><rect x="340" y="345" width="14" height="14" rx="3" fill="#eff6ff"/><rect x="340" y="364" width="14" height="14" rx="3" fill="#eff6ff"/><rect x="340" y="383" width="14" height="14" rx="3" fill="#dbeafe"/><rect x="359" y="269" width="14" height="14" rx="3" fill="#dbeafe"/><rect x="359" y="288" width="14" height="14" rx="3" fill="#dbeafe"/><rect x="359" y="307" width="14" height="14" rx="3" fill="#93c5fd"/><rect x="359" y="326" width="14" height="14" rx="3" fill="#bfdbfe"/><rect x="359" y="345" width="14" height="14" rx="3" fill="#eff6ff"/><rect x="359" y="364" width="14" height="14" rx="3" fill="#93c5fd"/><rect x="359" y="383" width="14" height="14" rx="3" fill="#bfdbfe"/><rect x="378" y="269" width="14" height="14" rx="3" fill="#dbeafe"/><rect x="378" y="288" width="14" height="14" rx="3" fill="#bfdbfe"/><rect x="378" y="307" width="14" height="14" rx="3" fill="#dbeafe"/><rect x="378" y="326" width="14" height="14" rx="3" fill="#eff6ff"/><rect x="378" y="345" width="14" height="14" rx="3" fill="#bfdbfe"/><rect x="378" y="364" width="14" height="14" rx="3" fill="#eff6ff"/><rect x="378" y="383" width="14" height="14" rx="3" fill="#bfdbfe"/><rect x="397" y="269" width="14" height="14" rx="3" fill="#bfdbfe"/><rect x="397" y="288" width="14" height="14" rx="3" fill="#bfdbfe"/><rect x="397" y="307" width="14" height="14" rx="3" fill="#bfdbfe"/><rect x="397" y="326" width="14" height="14" rx="3" fill="#dbeafe"/><rect x="397" y="345" width="14" height="14" rx="3" fill="#dbeafe"/><rect x="397" y="364" width="14" height="14" rx="3" fill="#dbeafe"/><rect x="397" y="383" width="14" height="14" rx="3" fill="#bfdbfe"/><rect x="416" y="269" width="14" height="14" rx="3" fill="#eff6ff"/><rect x="416" y="288" width="14" height="14" rx="3" fill="#93c5fd"/><rect x="416" y="307" width="14" height="14" rx="3" fill="#eff6ff"/><rect x="416" y="326" width="14" height="14" rx="3" fill="#bfdbfe"/><rect x="416" y="345" width="14" height="14" rx="3" fill="#93c5fd"/><rect x="416" y="364" width="14" height="14" rx="3" fill="#dbeafe"/><rect x="416" y="383" width="14" height="14" rx="3" fill="#93c5fd"/><rect x="435" y="269" width="14" height="14" rx="3" fill="#93c5fd"/><rect x="435" y="288" width="14" height="14" rx="3" fill="#bfdbfe"/><rect x="435" y="307" width="14" height="14" rx="3" fill="#bfdbfe"/><rect x="435" y="326" width="14" height="14" rx="3" fill="#93c5fd"/><rect x="435" y="345" width="14" height="14" rx="3" fill="#dbeafe"/><rect x="435" y="364" width="14" height="14" rx="3" fill="#bfdbfe"/><rect x="435" y="383" width="14" height="14" rx="3" fill="#bfdbfe"/><rect x="454" y="269" width="14" height="14" rx="3" fill="#bfdbfe"/><rect x="454" y="288" width="14" height="14" rx="3" fill="#bfdbfe"/><rect x="454" y="307" width="14" height="14" rx="3" fill="#bfdbfe"/><rect x="454" y="326" width="14" height="14" rx="3" fill="#bfdbfe"/><rect x="454" y="345" width="14" height="14" rx="3" fill="#dbeafe"/><rect x="454" y="364" width="14" height="14" rx="3" fill="#dbeafe"/><rect x="454" y="383" width="14" height="14" rx="3" fill="#bfdbfe"/><rect x="473" y="269" width="14" height="14" rx="3" fill="#93c5fd"/><rect x="473" y="288" width="14" height="14" rx="3" fill="#dbeafe"/><rect x="473" y="307" width="14" height="14" rx="3" fill="#dbeafe"/><rect x="473" y="326" width="14" height="14" rx="3" fill="#bfdbfe"/><rect x="473" y="345" width="14" height="14" rx="3" fill="#93c5fd"/><rect x="473" y="364" width="14" height="14" rx="3" fill="#eff6ff"/><rect x="473" y="383" width="14" height="14" rx="3" fill="#bfdbfe"/><rect x="492" y="269" width="14" height="14" rx="3" fill="#93c5fd"/><rect x="492" y="288" width="14" height="14" rx="3" fill="#bfdbfe"/><rect x="492" y="307" width="14" height="14" rx="3" fill="#eff6ff"/><rect x="492" y="326" width="14" height="14" rx="3" fill="#bfdbfe"/><rect x="492" y="345" width="14" height="14" rx="3" fill="#bfdbfe"/><rect x="492" y="364" width="14" height="14" rx="3" fill="#dbeafe"/><rect x="492" y="383" width="14" height="14" rx="3" fill="#93c5fd"/><rect x="511" y="269" width="14" height="14" rx="3" fill="#bfdbfe"/><rect x="511" y="288" width="14" height="14" rx="3" fill="#dbeafe"/><rect x="511" y="307" width="14" height="14" rx="3" fill="#dbeafe"/><rect x="511" y="326" width="14" height="14" rx="3" fill="#bfdbfe"/><rect x="511" y="345" width="14" height="14" rx="3" fill="#dbeafe"/><rect x="511" y="364" width="14" height="14" rx="3" fill="#dbeafe"/><rect x="511" y="383" width="14" height="14" rx="3" fill="#bfdbfe"/><rect x="530" y="269" width="14" height="14" rx="3" fill="#dbeafe"/><rect x="530" y="288" width="14" height="14" rx="3" fill="#eff6ff"/><rect x="530" y="307" width="14" height="14" rx="3" fill="#dbeafe"/><rect x="530" y="326" width="14" height="14" rx="3" fill="#eff6ff"/><rect x="530" y="345" width="14" height="14" rx="3" fill="#dbeafe"/><rect x="530" y="364" width="14" height="14" rx="3" fill="#dbeafe"/><rect x="530" y="383" width="14" height="14" rx="3" fill="#dbeafe"/><rect x="549" y="269" width="14" height="14" rx="3" fill="#dbeafe"/><rect x="549" y="288" width="14" height="14" rx="3" fill="#dbeafe"/><rect x="549" y="307" width="14" height="14" rx="3" fill="#dbeafe"/><rect x="549" y="326" width="14" height="14" rx="3" fill="#dbeafe"/><rect x="549" y="345" width="14" height="14" rx="3" fill="#eff6ff"/><rect x="549" y="364" width="14" height="14" rx="3" fill="#dbeafe"/><rect x="549" y="383" width="14" height="14" rx="3" fill="#eff6ff"/><rect x="568" y="269" width="14" height="14" rx="3" fill="#dbeafe"/><rect x="568" y="288" width="14" height="14" rx="3" fill="#eff6ff"/><rect x="568" y="307" width="14" height="14" rx="3" fill="#eff6ff"/><rect x="568" y="326" width="14" height="14" rx="3" fill="#dbeafe"/><rect x="568" y="345" width="14" height="14" rx="3" fill="#dbeafe"/><rect x="568" y="364" width="14" height="14" rx="3" fill="#eff6ff"/><rect x="568" y="383" width="14" height="14" rx="3" fill="#eff6ff"/><rect x="587" y="269" width="14" height="14" rx="3" fill="#eff6ff"/><rect x="587" y="288" width="14" height="14" rx="3" fill="#eff6ff"/><rect x="587" y="307" width="14" height="14" rx="3" fill="#eff6ff"/><rect x="587" y="326" width="14" height="14" rx="3" fill="#eff6ff"/><rect x="587" y="345" width="14" height="14" rx="3" fill="#eff6ff"/><rect x="587" y="364" width="14" height="14" rx="3" fill="#bfdbfe"/><rect x="587" y="383" width="14" height="14" rx="3" fill="#dbeafe"/><rect x="606" y="269" width="14" height="14" rx="3" fill="#eff6ff"/><rect x="606" y="288" width="14" height="14" rx="3" fill="#eff6ff"/><rect x="606" y="307" width="14" height="14" rx="3" fill="#eff6ff"/><rect x="606" y="326" width="14" height="14" rx="3" fill="#eff6ff"/><rect x="606" y="345" width="14" height="14" rx="3" fill="#eff6ff"/><rect x="606" y="364" width="14" height="14" rx="3" fill="#eff6ff"/><rect x="606" y="383" width="14" height="14" rx="3" fill="#eff6ff"/><rect x="625" y="269" width="14" height="14" rx="3" fill="#eff6ff"/><rect x="625" y="288" width="14" height="14" rx="3" fill="#eff6ff"/><rect x="625" y="307" width="14" height="14" rx="3" fill="#dbeafe"/><rect x="625" y="326" width="14" height="14" rx="3" fill="#eff6ff"/><rect x="625" y="345" width="14" height="14" rx="3" fill="#eff6ff"/><rect x="625" y="364" width="14" height="14" rx="3" fill="#eff6ff"/><rect x="625" y="383" width="14" height="14" rx="3" fill="#eff6ff"/>

  <rect x="35" y="405" width="665" height="215" rx="14" fill="#ffffff" stroke="#dbe3ef" filter="url(#tinyShadow)"/>
  <text x="58" y="445" font-family="-apple-system, BlinkMacSystemFont, 'Segoe UI', Inter, Arial, sans-serif" font-size="17" font-weight="800" fill="#0f172a">Top Languages</text>
  <rect x="58" y="476" width="13" height="13" rx="3" fill="#1d72d8"/><text x="84" y="488" font-family="-apple-system, BlinkMacSystemFont, 'Segoe UI', Inter, Arial, sans-serif" font-size="15" font-weight="700" fill="#1f2937">TypeScript</text><rect x="210" y="477" width="190" height="10" rx="5" fill="#e2e8f0"/><rect x="210" y="477" width="183.8" height="10" rx="5" fill="#1d72d8"/><text x="430" y="488" font-family="-apple-system, BlinkMacSystemFont, 'Segoe UI', Inter, Arial, sans-serif" font-size="15" font-weight="700" fill="#334155">38.7%</text><rect x="58" y="506" width="13" height="13" rx="3" fill="#3b82f6"/><text x="84" y="518" font-family="-apple-system, BlinkMacSystemFont, 'Segoe UI', Inter, Arial, sans-serif" font-size="15" font-weight="700" fill="#1f2937">Python</text><rect x="210" y="507" width="190" height="10" rx="5" fill="#e2e8f0"/><rect x="210" y="507" width="125.4" height="10" rx="5" fill="#3b82f6"/><text x="430" y="518" font-family="-apple-system, BlinkMacSystemFont, 'Segoe UI', Inter, Arial, sans-serif" font-size="15" font-weight="700" fill="#334155">26.4%</text><rect x="58" y="536" width="13" height="13" rx="3" fill="#f59e0b"/><text x="84" y="548" font-family="-apple-system, BlinkMacSystemFont, 'Segoe UI', Inter, Arial, sans-serif" font-size="15" font-weight="700" fill="#1f2937">Java</text><rect x="210" y="537" width="190" height="10" rx="5" fill="#e2e8f0"/><rect x="210" y="537" width="71.7" height="10" rx="5" fill="#f59e0b"/><text x="430" y="548" font-family="-apple-system, BlinkMacSystemFont, 'Segoe UI', Inter, Arial, sans-serif" font-size="15" font-weight="700" fill="#334155">15.1%</text><rect x="58" y="566" width="13" height="13" rx="3" fill="#475569"/><text x="84" y="578" font-family="-apple-system, BlinkMacSystemFont, 'Segoe UI', Inter, Arial, sans-serif" font-size="15" font-weight="700" fill="#1f2937">C</text><rect x="210" y="567" width="190" height="10" rx="5" fill="#e2e8f0"/><rect x="210" y="567" width="48.4" height="10" rx="5" fill="#475569"/><text x="430" y="578" font-family="-apple-system, BlinkMacSystemFont, 'Segoe UI', Inter, Arial, sans-serif" font-size="15" font-weight="700" fill="#334155">10.2%</text><rect x="58" y="596" width="13" height="13" rx="3" fill="#cbd5e1"/><text x="84" y="608" font-family="-apple-system, BlinkMacSystemFont, 'Segoe UI', Inter, Arial, sans-serif" font-size="15" font-weight="700" fill="#1f2937">Other</text><rect x="210" y="597" width="190" height="10" rx="5" fill="#e2e8f0"/><rect x="210" y="597" width="45.6" height="10" rx="5" fill="#cbd5e1"/><text x="430" y="608" font-family="-apple-system, BlinkMacSystemFont, 'Segoe UI', Inter, Arial, sans-serif" font-size="15" font-weight="700" fill="#334155">9.6%</text>
  <circle cx="600" cy="525" r="58" fill="none" stroke="#1d72d8" stroke-width="32" stroke-dasharray="141.03 223.39" stroke-dashoffset="0.00" transform="rotate(-90 600 525)"/><circle cx="600" cy="525" r="58" fill="none" stroke="#3b82f6" stroke-width="32" stroke-dasharray="96.21 268.22" stroke-dashoffset="-141.03" transform="rotate(-90 600 525)"/><circle cx="600" cy="525" r="58" fill="none" stroke="#f59e0b" stroke-width="32" stroke-dasharray="55.03 309.40" stroke-dashoffset="-237.24" transform="rotate(-90 600 525)"/><circle cx="600" cy="525" r="58" fill="none" stroke="#475569" stroke-width="32" stroke-dasharray="37.17 327.25" stroke-dashoffset="-292.27" transform="rotate(-90 600 525)"/><circle cx="600" cy="525" r="58" fill="none" stroke="#cbd5e1" stroke-width="32" stroke-dasharray="34.98 329.44" stroke-dashoffset="-329.44" transform="rotate(-90 600 525)"/><circle cx="600" cy="525" r="36" fill="#ffffff"/>
</svg>